#N canvas 1331 299 983 473 10;
#X obj 76 137 table \$0-weighting;
#X obj 70 47 i \$0;
#X obj 119 49 bng 15 250 50 0 empty empty empty 17 7 0 10 -262144 -1
-1;
#X obj 79 11 loadbang;
#X obj 36 176 inlet;
#X obj 35 209 t b f f f;
#X msg 35 251 1;
#X obj 78 253 * 128;
#X obj 78 275 min 128;
#X obj 78 297 tabread \$0-weighting;
#X obj 241 278 min 128;
#X obj 241 300 tabread \$0-weighting;
#X obj 394 282 min 128;
#X obj 394 304 tabread \$0-weighting;
#X obj 240 257 * 172;
#X obj 37 413 outlet;
#X text 86 172 wideness 0..1 \, 0 max spat and 1 all the same;
#X text 143 194 3rd order weights \, will be substituded by common
abst.;
#X obj 535 281 min 128;
#X obj 535 303 tabread \$0-weighting;
#X obj 535 259 * 256;
#X obj 394 260 * 200;
#X obj 37 384 pack 1 1 1 1 1;
#X obj 392 52 bng 15 250 50 0 empty empty empty 0 -6 0 8 -262144 -1
-1;
#X obj 392 71 savepanel;
#X msg 392 124 \; \$2-weighting write \$1;
#X obj 392 96 pack s \$0;
#X floatatom 23 154 5 0 0 0 - - -;
#X obj 117 424 print;
#X floatatom 308 281 5 0 0 0 - - -;
#X floatatom 456 286 5 0 0 0 - - -;
#X floatatom 589 284 5 0 0 0 - - -;
#X floatatom 16 95 5 0 0 0 - - -;
#X obj 16 114 / 100;
#X msg 69 78 \; \$1-weighting cosinesum 256 0.5 0.5 \; \$1-weighting
resize 128;
#X text 155 13 drawing half of a cosine period shifted to positive
and scaled to one;
#X obj 762 109 until;
#X msg 762 72 128;
#X obj 762 18 bng 15 250 50 0 empty empty empty 17 7 0 10 -262144 -1
-1;
#X obj 762 38 t b b;
#X obj 762 141 int 0;
#X obj 810 146 + 1;
#X msg 825 85 0;
#X obj 762 377 tabwrite \$0-weighting;
#X obj 762 285 cos;
#X obj 762 307 + 1;
#X floatatom 841 218 5 0 0 0 - - -;
#X obj 697 261 print;
#X obj 762 329 / 2;
#X obj 762 201 t f f;
#X obj 762 166 t f f;
#X obj 762 259 * 3.14159;
#X obj 762 228 / 128;
#X connect 1 0 34 0;
#X connect 2 0 1 0;
#X connect 3 0 1 0;
#X connect 4 0 5 0;
#X connect 5 0 6 0;
#X connect 5 1 7 0;
#X connect 5 2 14 0;
#X connect 5 3 21 0;
#X connect 5 3 20 0;
#X connect 6 0 22 0;
#X connect 7 0 8 0;
#X connect 8 0 9 0;
#X connect 9 0 22 1;
#X connect 10 0 11 0;
#X connect 10 0 29 0;
#X connect 11 0 22 2;
#X connect 12 0 13 0;
#X connect 12 0 30 0;
#X connect 13 0 22 3;
#X connect 14 0 10 0;
#X connect 18 0 19 0;
#X connect 18 0 31 0;
#X connect 19 0 22 4;
#X connect 20 0 18 0;
#X connect 21 0 12 0;
#X connect 22 0 15 0;
#X connect 22 0 28 0;
#X connect 23 0 24 0;
#X connect 24 0 26 0;
#X connect 26 0 25 0;
#X connect 27 0 5 0;
#X connect 32 0 33 0;
#X connect 33 0 27 0;
#X connect 36 0 40 0;
#X connect 37 0 36 0;
#X connect 38 0 39 0;
#X connect 39 0 37 0;
#X connect 39 1 42 0;
#X connect 40 0 50 0;
#X connect 41 0 40 1;
#X connect 42 0 40 1;
#X connect 44 0 45 0;
#X connect 45 0 48 0;
#X connect 48 0 43 0;
#X connect 49 0 52 0;
#X connect 49 1 43 1;
#X connect 50 0 49 0;
#X connect 50 1 41 0;
#X connect 50 1 46 0;
#X connect 51 0 44 0;
#X connect 52 0 51 0;
