#N canvas 1320 239 737 472 10;
#X floatatom 69 118 5 0 0 0 - - -;
#X obj 72 90 hsl 200 15 0 1 0 0 empty empty empty -2 -8 0 10 -262144
-1 -1 10566 1;
#X obj 69 153 moses 0.7501;
#X obj 54 191 / 0.75;
#X floatatom 54 215 5 0 0 0 - - -;
#X obj 54 242 t f f;
#X obj 54 267 *;
#X floatatom 54 313 5 0 0 0 - - -;
#X obj 54 336 rmstodb;
#X obj 54 363 - 100;
#X obj 138 206 / 0.25;
#X obj 138 181 - 0.75;
#X text 114 418 dB;
#X obj 138 266 *;
#X obj 138 292 + 1;
#X obj 138 243 t f f;
#X floatatom 138 313 5 0 0 0 - - -;
#X obj 138 339 rmstodb;
#X obj 138 366 - 100;
#X obj 429 316 noise~;
#X obj 414 410 dac~;
#X obj 429 338 *~ 0.1;
#X obj 414 388 *~;
#X obj 359 314 pack 0 10;
#X obj 359 336 line~;
#X obj 92 302 s rms;
#X obj 359 257 r rms;
#X floatatom 75 418 5 0 0 0 - - -;
#X obj 535 143 dbtorms;
#X floatatom 535 99 5 0 0 0 - - -;
#X floatatom 535 164 5 0 0 0 - - -;
#X obj 535 204 * 0.75;
#X floatatom 65 59 5 0 0 0 - - -;
#X obj 535 184 sqrt;
#X text 529 74 reverse calculate parameter;
#X floatatom 535 289 5 0 0 0 - - -;
#X obj 535 116 moses 100.1;
#X obj 598 143 dbtorms;
#X floatatom 598 164 5 0 0 0 - - -;
#X obj 598 214 sqrt;
#X obj 598 188 - 1;
#X obj 598 234 * 0.25;
#X obj 598 256 + 0.75;
#X text 538 55 dB -> PARAMETER;
#X text 96 12 CALCULATIONS FOR PARAMETER (FADER) TO RMS and dB...;
#X text 574 289 parameter (0.0....1.0);
#X floatatom 372 290 5 0 0 0 - - -;
#X text 179 312 RMS;
#X connect 0 0 2 0;
#X connect 1 0 0 0;
#X connect 2 0 3 0;
#X connect 2 1 11 0;
#X connect 3 0 4 0;
#X connect 4 0 5 0;
#X connect 5 0 6 0;
#X connect 5 1 6 1;
#X connect 6 0 7 0;
#X connect 6 0 25 0;
#X connect 7 0 8 0;
#X connect 8 0 9 0;
#X connect 9 0 27 0;
#X connect 10 0 15 0;
#X connect 11 0 10 0;
#X connect 13 0 14 0;
#X connect 14 0 16 0;
#X connect 14 0 25 0;
#X connect 15 0 13 0;
#X connect 15 1 13 1;
#X connect 16 0 17 0;
#X connect 17 0 18 0;
#X connect 18 0 27 0;
#X connect 19 0 21 0;
#X connect 21 0 22 1;
#X connect 22 0 20 0;
#X connect 22 0 20 1;
#X connect 23 0 24 0;
#X connect 24 0 22 0;
#X connect 26 0 23 0;
#X connect 26 0 46 0;
#X connect 28 0 30 0;
#X connect 29 0 36 0;
#X connect 30 0 33 0;
#X connect 31 0 35 0;
#X connect 32 0 1 0;
#X connect 33 0 31 0;
#X connect 36 0 28 0;
#X connect 36 1 37 0;
#X connect 37 0 38 0;
#X connect 38 0 40 0;
#X connect 39 0 41 0;
#X connect 40 0 39 0;
#X connect 41 0 42 0;
#X connect 42 0 35 0;
