#N canvas 159 280 874 312 10;
#X declare -path /usr/lib/pd/extra/osc;
#X declare -path /usr/lib/pd/extra/zexy;
#X declare -path /usr/lib/pd/extra/net;
#X declare -lib mrpeach;
#X declare -lib net;
#N canvas 599 116 581 394 sphere 0;
#X obj 52 16 inlet;
#X obj 52 62 pix_image;
#X obj 195 8 loadbang;
#X obj 52 263 pix_texture;
#X obj 232 242 tgl 15 0 empty empty empty 0 -6 0 8 -262144 -1 -1 0
1;
#X msg 232 261 rectangle \$1;
#X obj 232 202 tgl 15 0 empty empty empty 0 -6 0 8 -262144 -1 -1 0
1;
#X msg 232 221 repeat \$1;
#X obj 52 206 pix_alpha;
#X floatatom 64 150 5 0 0 0 - - -;
#X floatatom 100 150 5 0 0 0 - - -;
#X msg 134 181 0.5 0.5 0.5;
#X msg 90 181 1 1 1;
#X msg 64 128 0.35;
#X msg 101 128 0.1;
#X obj 167 92 loadbang;
#X text 290 338 draw sphere with texture;
#X msg 102 37 open images/aluminum-texture.jpg;
#X msg 315 34 open images/metal-grid.jpg;
#X obj 52 282 sphere 3 200;
#X obj 52 96 alpha;
#X msg 310 66 open images/metal-net.jpg;
#X connect 0 0 1 0;
#X connect 1 0 20 0;
#X connect 2 0 17 0;
#X connect 3 0 19 0;
#X connect 4 0 5 0;
#X connect 5 0 3 0;
#X connect 6 0 7 0;
#X connect 7 0 3 0;
#X connect 8 0 3 0;
#X connect 9 0 8 1;
#X connect 10 0 8 2;
#X connect 11 0 8 4;
#X connect 12 0 8 3;
#X connect 13 0 9 0;
#X connect 14 0 10 0;
#X connect 15 0 14 0;
#X connect 15 0 13 0;
#X connect 15 0 11 0;
#X connect 15 0 12 0;
#X connect 17 0 1 0;
#X connect 18 0 1 0;
#X connect 20 0 8 0;
#X connect 21 0 1 0;
#X restore 211 114 pd sphere;
#X obj 211 34 gemhead 6;
#N canvas 0 22 450 300 ortho-man 0;
#X obj 212 24 ortho 0;
#X obj 157 3 tgl 15 0 empty empty empty 17 7 0 10 -262144 -1 -1 1 1
;
#X obj 55 40 ortho 0;
#X msg 291 -10 compat \$1;
#X obj 291 -30 tgl 15 1 empty empty empty 0 -6 0 8 -262144 -1 -1 0
1;
#X msg 157 -24 1;
#X msg 291 -53 0;
#X obj 157 -58 loadbang;
#X obj 61 -63 inlet;
#X obj 57 80 outlet;
#X connect 1 0 0 0;
#X connect 1 0 2 0;
#X connect 2 0 9 0;
#X connect 3 0 0 0;
#X connect 3 0 2 0;
#X connect 4 0 3 0;
#X connect 5 0 1 0;
#X connect 6 0 4 0;
#X connect 7 0 5 0;
#X connect 7 0 6 0;
#X connect 8 0 2 0;
#X restore 211 91 pd ortho-man;
#X obj 453 101 r gemwin;
#X msg 443 59 topmost 1 \, menubar 1 \, dimen 640 480 \, fullscreen
0 \, cursor 1 \, FSAA 4 \, color 0 0 0 \, lighting 1 \, create \, 1
;
#X obj 23 132 s /ambi_enc;
#X obj 211 7 tgl 15 0 empty empty empty 17 7 0 10 -262144 -1 -1 0 1
;
#X obj 97 82 print;
#N canvas 61 395 1127 440 send-mouse-to-src 0;
#X obj 22 256 r azimuth;
#X obj 178 281 r elevation;
#X obj 22 401 s;
#X obj 37 314 r select-source;
#X obj 37 341 t f f;
#X obj 178 401 s;
#X obj 17 11 gemkeyboard;
#X obj 24 43 sel 18 19 20 21 23 22 26 28 25 29;
#X obj 17 160 s select-source;
#X msg 17 95 1;
#X msg 47 95 2;
#X msg 77 95 3;
#X msg 107 95 4;
#X msg 137 95 5;
#X msg 167 95 6;
#X msg 197 95 7;
#X msg 227 95 8;
#X msg 257 95 9;
#X msg 287 95 0;
#X msg 37 375 symbol /src/\$1/azimuth;
#X msg 193 376 symbol /src/\$1/elevation;
#X obj 570 233 gemhead;
#X obj 570 379 text3d;
#X obj 577 280 r select-source;
#X obj 603 332 loadbang;
#X msg 577 302 text selected source \$1;
#X msg 603 357 4;
#X obj 570 255 translateXYZ 0 -3.1 0;
#X text 105 12 osx;
#X obj 324 3 gemkeyboard;
#X obj 324 152 s select-source;
#X msg 324 87 1;
#X msg 354 87 2;
#X msg 384 87 3;
#X msg 414 87 4;
#X msg 444 87 5;
#X msg 474 87 6;
#X msg 504 87 7;
#X msg 534 87 8;
#X msg 564 87 9;
#X msg 594 87 0;
#X text 412 4 linux;
#X obj 331 35 sel 10 11 12 13 14 15 16 17 18 19;
#X obj 667 20 gemkeyboard;
#X obj 667 169 s select-source;
#X msg 667 104 1;
#X msg 697 104 2;
#X msg 727 104 3;
#X msg 757 104 4;
#X msg 787 104 5;
#X msg 817 104 6;
#X msg 847 104 7;
#X msg 877 104 8;
#X msg 907 104 9;
#X msg 937 104 0;
#X text 755 21 windows;
#X obj 674 52 sel 49 50 51 52 53 54 55 56 57 58;
#X connect 0 0 2 0;
#X connect 1 0 5 0;
#X connect 3 0 4 0;
#X connect 4 0 19 0;
#X connect 4 1 20 0;
#X connect 6 0 7 0;
#X connect 7 0 9 0;
#X connect 7 1 10 0;
#X connect 7 2 11 0;
#X connect 7 3 12 0;
#X connect 7 4 13 0;
#X connect 7 5 14 0;
#X connect 7 6 15 0;
#X connect 7 7 16 0;
#X connect 7 8 17 0;
#X connect 7 9 18 0;
#X connect 9 0 8 0;
#X connect 10 0 8 0;
#X connect 11 0 8 0;
#X connect 12 0 8 0;
#X connect 13 0 8 0;
#X connect 14 0 8 0;
#X connect 15 0 8 0;
#X connect 16 0 8 0;
#X connect 17 0 8 0;
#X connect 18 0 8 0;
#X connect 19 0 2 1;
#X connect 20 0 5 1;
#X connect 21 0 27 0;
#X connect 23 0 25 0;
#X connect 24 0 26 0;
#X connect 25 0 22 0;
#X connect 26 0 22 1;
#X connect 27 0 22 0;
#X connect 31 0 30 0;
#X connect 32 0 30 0;
#X connect 33 0 30 0;
#X connect 34 0 30 0;
#X connect 35 0 30 0;
#X connect 36 0 30 0;
#X connect 37 0 30 0;
#X connect 38 0 30 0;
#X connect 39 0 30 0;
#X connect 40 0 30 0;
#X connect 42 0 31 0;
#X connect 42 1 32 0;
#X connect 42 2 33 0;
#X connect 42 3 34 0;
#X connect 42 4 35 0;
#X connect 42 5 36 0;
#X connect 42 6 37 0;
#X connect 42 7 38 0;
#X connect 42 8 39 0;
#X connect 42 9 40 0;
#X connect 43 0 56 0;
#X connect 45 0 44 0;
#X connect 46 0 44 0;
#X connect 47 0 44 0;
#X connect 48 0 44 0;
#X connect 49 0 44 0;
#X connect 50 0 44 0;
#X connect 51 0 44 0;
#X connect 52 0 44 0;
#X connect 53 0 44 0;
#X connect 54 0 44 0;
#X connect 56 0 45 0;
#X connect 56 1 46 0;
#X connect 56 2 47 0;
#X connect 56 3 48 0;
#X connect 56 4 49 0;
#X connect 56 5 50 0;
#X connect 56 6 51 0;
#X connect 56 7 52 0;
#X connect 56 8 53 0;
#X connect 56 9 54 0;
#X restore 441 230 pd send-mouse-to-src;
#X obj 521 109 tgl 15 0 empty empty empty 17 7 0 10 -262144 -1 -1 0
1;
#N canvas 293 66 772 641 absolute-mouse 0;
#X obj 71 132 cart2pol;
#X obj 58 351 spigot;
#X obj 58 513 s elevation;
#X obj 58 437 + 90;
#X obj 176 568 s azimuth;
#X obj 145 345 spigot;
#X obj 145 368 * 57.2958;
#X obj 202 463 moses 180;
#X obj 145 437 moses -181;
#X obj 145 390 + 90;
#X obj 145 464 + 180;
#X obj 145 486 t f f;
#X msg 145 508 180;
#X obj 145 530 +;
#X obj 58 460 min 90;
#X obj 58 482 max -90;
#X obj 151 240 t f f;
#X obj 151 217 spigot 1;
#X obj 145 263 r \$0-phi;
#X obj 58 277 r \$0-r;
#X obj 71 175 s \$0-r;
#X obj 93 155 s \$0-phi;
#X obj 379 269 spigot;
#X obj 379 411 s elevation;
#X obj 501 512 s azimuth;
#X obj 501 289 spigot;
#X obj 501 312 * 57.2958;
#X obj 558 407 moses 180;
#X obj 501 381 moses -181;
#X obj 501 334 + 90;
#X obj 501 408 + 180;
#X obj 501 430 t f f;
#X msg 501 452 180;
#X obj 501 474 +;
#X obj 379 358 min 90;
#X obj 379 380 max -90;
#X obj 489 194 t f f;
#X obj 501 217 r \$0-phi;
#X obj 379 195 r \$0-r;
#X obj 489 161 spigot 0;
#X obj 196 194 r \$0-upper-hem;
#X obj 534 115 r \$0-upper-hem;
#X obj 534 137 == 0;
#X obj 390 98 tgl 15 0 \$0-upper-hem \$0-upper-hem \$0-upper-hem 17
7 0 10 -262144 -1 -1 0 1;
#X floatatom 37 169 5 0 0 0 - - -;
#X obj 379 335 - 90;
#X obj 181 73 t f f f;
#N canvas 0 22 266 296 switch-hemi 0;
#X obj 79 26 inlet;
#X obj 79 48 sel 0;
#X obj 79 110 f;
#X obj 94 87 r elevation;
#X obj 79 132 moses 0;
#X obj 79 154 t b;
#X obj 118 154 t b;
#X obj 90 255 s \$0-upper-hem;
#X msg 79 176 0;
#X msg 118 176 1;
#X connect 0 0 1 0;
#X connect 1 0 2 0;
#X connect 2 0 4 0;
#X connect 3 0 2 1;
#X connect 4 0 5 0;
#X connect 4 1 6 0;
#X connect 5 0 8 0;
#X connect 6 0 9 0;
#X connect 8 0 7 0;
#X connect 9 0 7 0;
#X restore 181 110 pd switch-hemi;
#X text 290 33 switch between upper and lower hemisphere when mousebutton
released!;
#X text 546 92 LOWER HEMISPHERE;
#X text 190 172 UPPER HEMISPHERE;
#X obj 71 96 - 0.5;
#X obj 71 23 gemmouse 1 0.8;
#X obj 109 96 - 0.4;
#X obj 379 245 f 0;
#X obj 394 218 t b f;
#X obj 501 268 f 0;
#X obj 516 245 t b f;
#X obj 58 329 f 0;
#X obj 73 306 t b f;
#X obj 145 324 f 0;
#X obj 160 299 t b f;
#X text 313 433 mapping should be better!!;
#X floatatom 26 343 5 0 0 0 - - -;
#X obj 58 373 * -240;
#X obj 379 291 * 240;
#X obj 253 488 - 360;
#X obj 609 432 - 360;
#X connect 0 0 20 0;
#X connect 0 0 44 0;
#X connect 0 1 21 0;
#X connect 1 0 64 0;
#X connect 3 0 14 0;
#X connect 5 0 6 0;
#X connect 6 0 9 0;
#X connect 7 0 4 0;
#X connect 7 1 66 0;
#X connect 8 0 10 0;
#X connect 8 1 7 0;
#X connect 9 0 8 0;
#X connect 10 0 11 0;
#X connect 11 0 12 0;
#X connect 11 1 13 1;
#X connect 12 0 13 0;
#X connect 13 0 4 0;
#X connect 14 0 15 0;
#X connect 15 0 2 0;
#X connect 16 0 59 0;
#X connect 16 1 61 0;
#X connect 17 0 16 0;
#X connect 18 0 60 0;
#X connect 19 0 58 0;
#X connect 22 0 65 0;
#X connect 25 0 26 0;
#X connect 26 0 29 0;
#X connect 27 0 24 0;
#X connect 27 1 67 0;
#X connect 28 0 30 0;
#X connect 28 1 27 0;
#X connect 29 0 28 0;
#X connect 30 0 31 0;
#X connect 31 0 32 0;
#X connect 31 1 33 1;
#X connect 32 0 33 0;
#X connect 33 0 24 0;
#X connect 34 0 35 0;
#X connect 35 0 23 0;
#X connect 36 0 55 0;
#X connect 36 1 57 0;
#X connect 37 0 56 0;
#X connect 38 0 54 0;
#X connect 39 0 36 0;
#X connect 40 0 17 1;
#X connect 41 0 42 0;
#X connect 42 0 39 1;
#X connect 45 0 34 0;
#X connect 46 0 47 0;
#X connect 46 1 17 0;
#X connect 46 2 39 0;
#X connect 51 0 0 0;
#X connect 52 0 51 0;
#X connect 52 1 53 0;
#X connect 52 2 46 0;
#X connect 53 0 0 1;
#X connect 54 0 22 0;
#X connect 55 0 54 0;
#X connect 55 1 22 1;
#X connect 56 0 25 0;
#X connect 57 0 56 0;
#X connect 57 1 25 1;
#X connect 58 0 1 0;
#X connect 58 0 63 0;
#X connect 59 0 58 0;
#X connect 59 1 1 1;
#X connect 60 0 5 0;
#X connect 61 0 60 0;
#X connect 61 1 5 1;
#X connect 64 0 3 0;
#X connect 65 0 45 0;
#X connect 66 0 4 0;
#X connect 67 0 24 0;
#X restore 451 196 pd absolute-mouse;
#X text 456 177 left mousebtn;
#X msg 546 101 destroy;
#X obj 443 127 gemwin 20;
#N canvas 37 416 450 300 relative-mouse 0;
#X obj 76 17 gemmouse 1 0.8;
#X obj 264 33 r elevation;
#X obj 76 91 t f f;
#X obj 77 122 -;
#X obj 92 198 r azimuth;
#X obj 77 226 +;
#X obj 77 248 s azimuth;
#X obj 77 166 spigot;
#X obj 170 88 t f f;
#X obj 171 119 -;
#X obj 171 223 +;
#X obj 171 163 spigot;
#X obj 186 195 r elevation;
#X obj 171 245 s elevation;
#X obj 171 141 * 130;
#X obj 77 144 * 130;
#X connect 0 0 2 0;
#X connect 0 1 8 0;
#X connect 0 4 7 1;
#X connect 0 4 11 1;
#X connect 2 0 3 1;
#X connect 2 1 3 0;
#X connect 3 0 15 0;
#X connect 4 0 5 1;
#X connect 5 0 6 0;
#X connect 7 0 5 0;
#X connect 8 0 9 1;
#X connect 8 1 9 0;
#X connect 9 0 14 0;
#X connect 10 0 13 0;
#X connect 11 0 10 0;
#X connect 12 0 10 1;
#X connect 14 0 11 0;
#X connect 15 0 7 0;
#X restore 587 196 pd relative-mouse;
#N canvas 365 36 450 300 declares 0;
#X obj 94 68 declare -path /usr/lib/pd/extra/osc;
#X obj 101 109 declare -path /usr/lib/pd/extra/zexy;
#X obj 107 14 declare -path /usr/lib/pd/extra/net;
#X text 222 35 iemnet crashes;
#X obj 172 151 import mrpeach;
#X obj 286 151 import net;
#X restore 784 9 pd declares;
#N canvas 567 132 626 413 spot-light 0;
#X floatatom 321 104 5 0 0 1 linear_attenuation - -;
#X floatatom 373 141 5 0 0 2 cone_cutoff_angle - -;
#X floatatom 411 171 5 0 0 2 decay_at_edges - -;
#X obj 411 190 t b f;
#X obj 373 210 t b f;
#X obj 371 230 pack 0 90 3;
#X obj 118 86 gemhead;
#X obj 149 170 tgl 15 0 empty empty empty 17 7 0 10 -262144 -1 -1 0
1;
#X msg 188 184 1 0.7 0.8;
#X obj 118 241 spot_light;
#X floatatom 172 55 5 0 0 0 - - -;
#X obj 118 108 rotateXYZ -15 41 0;
#X obj 322 51 unpack 0 0 0;
#X obj 322 1 loadbang;
#X obj 118 143 translateXYZ 1 0 2.4;
#X msg 322 29 0.02 70 1;
#X connect 0 0 5 0;
#X connect 1 0 4 0;
#X connect 2 0 3 0;
#X connect 3 0 5 0;
#X connect 3 1 5 2;
#X connect 4 0 5 0;
#X connect 4 1 5 1;
#X connect 5 0 9 2;
#X connect 6 0 11 0;
#X connect 7 0 9 0;
#X connect 8 0 9 1;
#X connect 10 0 11 2;
#X connect 11 0 14 0;
#X connect 12 0 0 0;
#X connect 12 1 1 0;
#X connect 12 2 2 0;
#X connect 13 0 15 0;
#X connect 13 0 8 0;
#X connect 14 0 9 0;
#X connect 15 0 12 0;
#X restore 702 250 pd spot-light;
#X obj 64 190 src 1;
#X obj 24 31 udpreceive 7130;
#X obj 306 57 bng 15 250 50 0 empty empty empty 17 7 0 10 -262144 -1
-1;
#X obj 306 77 s reset-src;
#X text 66 167 one abstraction for each source;
#X text 390 253 change control of source by pressing 1-9;
#X obj 443 16 bng 30 250 50 0 empty empty START 17 7 0 10 -257985 -1
-1;
#X obj 546 17 bng 30 250 50 0 empty empty STOP 17 7 0 10 -258113 -1
-1;
#N canvas 0 22 450 300 light 0;
#X obj 111 69 gemhead;
#X obj 111 104 world_light;
#X obj 113 45 tgl 15 0 empty empty empty 17 7 0 10 -262144 -1 -1 0
1;
#X obj 84 89 tgl 15 0 empty empty empty 17 7 0 10 -262144 -1 -1 0 1
;
#X msg 182 78 0.5 0.5 0.5;
#X connect 0 0 1 0;
#X connect 2 0 0 0;
#X connect 3 0 1 0;
#X connect 4 0 1 1;
#X restore 768 180 pd light;
#X text 675 292 2012-2013 Matthias Kronlachner;
#X text 29 9 get osc data;
#X obj 97 61 spigot 0;
#X obj 142 42 tgl 15 0 empty empty empty 17 7 0 10 -262144 -1 -1 0
1;
#N canvas 796 37 199 224 rot_view 0;
#X obj 50 26 inlet;
#X obj 50 169 outlet;
#X obj 79 93 r /global_rot;
#X obj 79 115 unpack 0 0 0;
#X obj 50 147 rotateXYZ 0 0 0;
#X connect 0 0 4 0;
#X connect 2 0 3 0;
#X connect 3 0 4 1;
#X connect 3 1 4 2;
#X connect 3 2 4 3;
#X connect 4 0 1 0;
#X restore 211 61 pd rot_view;
#X obj 184 190 src 4;
#X obj 64 215 src 6;
#X obj 107 215 src 7;
#X obj 144 190 src 3;
#X obj 104 190 src 2;
#X obj 225 188 src 5;
#X obj 147 215 src 8;
#X obj 187 215 src 9;
#X obj 227 215 src 10;
#X obj 58 246 src 11;
#X obj 102 246 src 12;
#X obj 146 246 src 13;
#X obj 190 246 src 14;
#X obj 235 246 src 15;
#N canvas 663 188 311 203 global_rot 0;
#X obj 57 109 pack 0 0 0;
#X obj 57 131 s /global_rot;
#X floatatom 57 56 5 0 0 0 - - -;
#X floatatom 91 56 5 0 0 0 - - -;
#X obj 91 75 t b f;
#X floatatom 131 56 5 0 0 0 - - -;
#X obj 131 75 t b f;
#X msg 196 38 0 0 0;
#X msg 207 59 0 90 0;
#X msg 234 83 0 0 90;
#X obj 196 99 t a;
#X connect 0 0 1 0;
#X connect 2 0 0 0;
#X connect 3 0 4 0;
#X connect 4 0 0 0;
#X connect 4 1 0 1;
#X connect 5 0 6 0;
#X connect 6 0 0 0;
#X connect 6 1 0 2;
#X connect 7 0 10 0;
#X connect 8 0 10 0;
#X connect 9 0 10 0;
#X connect 10 0 1 0;
#X restore 315 250 pd global_rot;
#X obj 24 58 unpackOSC;
#X obj 24 110 routeOSC /ambi_enc;
#X connect 1 0 30 0;
#X connect 2 0 0 0;
#X connect 3 0 13 0;
#X connect 4 0 13 0;
#X connect 6 0 1 0;
#X connect 9 0 13 0;
#X connect 12 0 13 0;
#X connect 18 0 46 0;
#X connect 19 0 20 0;
#X connect 23 0 4 0;
#X connect 24 0 12 0;
#X connect 28 0 7 0;
#X connect 29 0 28 1;
#X connect 30 0 2 0;
#X connect 46 0 28 0;
#X connect 46 0 47 0;
#X connect 47 0 5 0;
