#N canvas 295 427 560 423 10;
#X obj 212 84 route \$1;
#N canvas 448 242 626 409 tube 0;
#X obj 17 12 inlet;
#X obj 17 101 separator;
#X obj 44 206 tube 0.2 0.2 0.1 30;
#X obj 17 39 t a a a;
#X obj 17 153 t a a;
#X obj 17 333 circle 0.2 50;
#X obj 224 87 separator;
#X obj 251 219 translateXYZ 0 0 0;
#X obj 224 189 t a a;
#X obj 224 329 circle 0.2 50;
#X obj 435 211 / 100;
#X obj 435 233 * -0.2;
#X obj 251 272 tube 0.2 0.2 -0.1 30;
#X obj 224 109 translateXYZ 0 0 0;
#X text 427 1 visualize level;
#X obj 435 143 rmstodb;
#X obj 133 306 + 0.2;
#X obj 224 306 translateXYZ 0 0 -0.1;
#X obj 17 125 color 0 0 1 1;
#X obj 224 165 color 1 0 0 1;
#X obj 17 373 outlet;
#X obj 17 240 translateXYZ 0 0 0.1;
#X obj 435 183 - 40;
#X obj 105 134 moses 60;
#X obj 44 183 translateXYZ 0 0 0;
#X obj 150 155 * 0.0015;
#X obj 133 286 * 2;
#X obj 133 263 inlet size;
#X obj 435 21 inlet peak;
#X obj 517 22 inlet rms;
#N canvas 515 65 241 270 release 0;
#X obj 48 66 inlet;
#X obj 143 219 outlet;
#X obj 48 168 moses;
#X obj 104 5 loadbang;
#X msg 104 27 1;
#X obj 104 134 t f f f;
#X obj 104 49 metro 60;
#X obj 104 94 f 0;
#X obj 149 102 - 0.01;
#X connect 0 0 2 0;
#X connect 2 1 7 0;
#X connect 3 0 4 0;
#X connect 4 0 6 0;
#X connect 5 0 2 1;
#X connect 5 1 8 0;
#X connect 5 2 1 0;
#X connect 6 0 7 0;
#X connect 7 0 5 0;
#X connect 8 0 7 1;
#X restore 540 142 pd release;
#X obj 317 22 r \$0-reset-level;
#X obj 213 13 rmstodb;
#X floatatom 214 57 5 0 0 0 - - -, f 5;
#X obj 109 19 / 100;
#X obj 109 73 pack 0 0 1 0;
#X obj 368 69 - 40;
#X obj 368 91 / 60;
#X obj 109 43 t f f;
#X obj 299 140 pack 0 0 1 0;
#X connect 0 0 3 0;
#X connect 1 0 18 0;
#X connect 3 0 1 0;
#X connect 3 1 6 0;
#X connect 4 0 21 0;
#X connect 4 1 24 0;
#X connect 5 0 20 0;
#X connect 6 0 13 0;
#X connect 7 0 12 0;
#X connect 8 0 17 0;
#X connect 8 1 7 0;
#X connect 10 0 11 0;
#X connect 11 0 12 3;
#X connect 11 0 17 3;
#X connect 13 0 19 0;
#X connect 15 0 22 0;
#X connect 15 0 23 0;
#X connect 15 0 36 0;
#X connect 16 0 5 1;
#X connect 16 0 2 1;
#X connect 16 0 2 2;
#X connect 16 0 9 1;
#X connect 17 0 9 0;
#X connect 18 0 4 0;
#X connect 19 0 8 0;
#X connect 21 0 5 0;
#X connect 22 0 10 0;
#X connect 23 1 25 0;
#X connect 24 0 2 0;
#X connect 25 0 2 3;
#X connect 25 0 21 3;
#X connect 26 0 16 0;
#X connect 27 0 26 0;
#X connect 28 0 32 0;
#X connect 29 0 15 0;
#X connect 31 0 15 0;
#X connect 32 0 33 0;
#X connect 32 0 34 0;
#X connect 34 0 38 0;
#X connect 35 0 18 1;
#X connect 36 0 37 0;
#X connect 37 0 35 3;
#X connect 37 0 39 3;
#X connect 38 0 35 0;
#X connect 38 1 35 1;
#X connect 38 1 39 0;
#X connect 39 0 19 1;
#X restore 107 345 pd tube;
#N canvas 663 160 462 362 rotate 0;
#X obj 66 78 inlet;
#X obj 66 306 outlet;
#X obj 66 133 rotateXYZ 0 0 0;
#X obj 66 226 rotateXYZ 0 0 0;
#X obj 264 182 - 90;
#N canvas 0 22 450 300 fade 0;
#X obj 154 29 inlet;
#X obj 154 227 outlet;
#X obj 154 67 t f f f;
#X obj 175 100 -;
#X obj 175 122 abs;
#X obj 154 172 pack 0 10;
#X obj 154 194 line;
#X obj 175 144 * 1.5;
#X connect 0 0 2 0;
#X connect 2 0 5 0;
#X connect 2 1 3 1;
#X connect 2 2 3 0;
#X connect 3 0 4 0;
#X connect 4 0 7 0;
#X connect 5 0 6 0;
#X connect 6 0 1 0;
#X connect 7 0 5 1;
#X restore 211 96 pd fade;
#X obj 153 43 inlet azimuth;
#X obj 264 158 inlet elevation;
#X obj 66 287 translateXYZ 0 0 3;
#X obj 153 90 * -1;
#X obj 153 68 + 90;
#X connect 0 0 2 0;
#X connect 2 0 3 0;
#X connect 3 0 8 0;
#X connect 4 0 3 2;
#X connect 6 0 10 0;
#X connect 7 0 4 0;
#X connect 8 0 1 0;
#X connect 9 0 2 3;
#X connect 10 0 9 0;
#X restore 80 260 pd rotate;
#N canvas 0 22 450 300 ortho-man 0;
#X obj 212 24 ortho 0;
#X obj 157 3 tgl 15 0 empty empty empty 17 7 0 10 -262144 -1 -1 1 1
;
#X obj 55 40 ortho 0;
#X msg 291 -10 compat \$1;
#X obj 291 -30 tgl 15 1 empty empty empty 0 -6 0 8 -262144 -1 -1 0
1;
#X msg 157 -24 1;
#X msg 291 -53 0;
#X obj 157 -58 loadbang;
#X obj 61 -63 inlet;
#X obj 57 80 outlet;
#X connect 1 0 0 0;
#X connect 1 0 2 0;
#X connect 2 0 9 0;
#X connect 3 0 0 0;
#X connect 3 0 2 0;
#X connect 4 0 3 0;
#X connect 5 0 1 0;
#X connect 6 0 4 0;
#X connect 7 0 5 0;
#X connect 7 0 6 0;
#X connect 8 0 2 0;
#X restore 80 215 pd ortho-man;
#X obj 212 37 r /ambi_enc;
#X obj 69 68 loadbang;
#X msg 69 90 0;
#X obj 112 99 t b;
#X msg 112 121 1;
#X obj 80 149 change;
#X obj 212 126 unpack s f f f f f f f;
#X obj 341 234 tgl 15 0 empty empty empty 17 7 0 10 -262144 -1 -1 1
1;
#N canvas 636 54 447 354 send_osc_msg 0;
#X obj 126 284 outlet;
#X text 287 192 id \, dist \, azi \, ele \, size;
#N canvas 0 22 450 300 merge 0;
#X obj 73 55 inlet;
#X obj 73 147 pack 0 0 0;
#X obj 73 169 outlet;
#X obj 136 55 inlet;
#X obj 136 77 t b f;
#X obj 186 55 inlet;
#X obj 186 77 t b f;
#X connect 0 0 1 0;
#X connect 1 0 2 0;
#X connect 3 0 4 0;
#X connect 4 0 1 0;
#X connect 4 1 1 1;
#X connect 5 0 6 0;
#X connect 6 0 1 0;
#X connect 6 1 1 2;
#X restore 126 157 pd merge;
#X floatatom 113 102 5 0 0 0 - - -, f 5;
#X floatatom 153 102 5 0 0 0 - - -, f 5;
#X floatatom 193 102 5 0 0 0 - - -, f 5;
#X msg 126 218 /ambi_enc_set 1 0 \$1 \$2 \$3;
#X msg 224 155 90 90 0.2;
#X obj 57 68 r /src/\$1/azimuth;
#X obj 191 67 r /src/\$1/elevation;
#X obj 271 97 r /src/\$1/size;
#X obj 53 17 r azimuth;
#X obj 209 22 r elevation;
#X connect 2 0 6 0;
#X connect 3 0 2 0;
#X connect 4 0 2 1;
#X connect 5 0 2 2;
#X connect 6 0 0 0;
#X connect 7 0 6 0;
#X connect 8 0 2 0;
#X connect 9 0 2 1;
#X connect 10 0 2 2;
#X restore 422 153 pd send_osc_msg;
#N canvas 505 79 439 346 connect-osc 0;
#X obj 120 35 inlet;
#X obj 120 224 udpsend;
#X msg 147 197 disconnect;
#X obj 120 174 list trim;
#X obj 120 60 change;
#X obj 120 82 t f b;
#X obj 120 104 int 0;
#X obj 40 250 sel 0;
#X obj 40 272 delay 5000;
#X text 63 297 reconnect;
#X obj 120 246 outlet;
#X obj 265 196 packOSC;
#X obj 265 142 list prepend send;
#X obj 265 166 list trim;
#X obj 265 99 inlet;
#X obj 120 127 list prepend 127.0.0.1;
#X obj 120 152 list prepend connect;
#X floatatom 172 39 5 0 0 0 - - -, f 5;
#X connect 0 0 4 0;
#X connect 1 0 7 0;
#X connect 1 0 10 0;
#X connect 2 0 1 0;
#X connect 3 0 1 0;
#X connect 4 0 5 0;
#X connect 5 0 6 0;
#X connect 5 1 2 0;
#X connect 6 0 15 0;
#X connect 7 0 8 0;
#X connect 8 0 6 0;
#X connect 11 0 1 0;
#X connect 12 0 13 0;
#X connect 13 0 11 0;
#X connect 14 0 12 0;
#X connect 15 0 16 0;
#X connect 16 0 3 0;
#X connect 17 0 4 0;
#X restore 341 176 pd connect-osc;
#N canvas 257 312 450 331 number 0;
#X obj 32 27 inlet;
#X obj 32 232 text3d;
#X obj 32 64 color 1 1 1;
#X obj 32 136 rotateXYZ;
#X obj 121 124 loadbang;
#X obj 42 184 int \$1;
#X msg 42 206 text \$1;
#X obj 121 146 t b b;
#X obj 32 283 text3d;
#X obj 32 254 translateXYZ 0 0 -0.11;
#X msg 148 179 4;
#X obj 32 97 translateXYZ 0 0 1e-05;
#X connect 0 0 2 0;
#X connect 1 0 9 0;
#X connect 2 0 11 0;
#X connect 3 0 1 0;
#X connect 4 0 7 0;
#X connect 5 0 6 0;
#X connect 6 0 1 0;
#X connect 6 0 8 0;
#X connect 7 0 5 0;
#X connect 7 1 10 0;
#X connect 9 0 8 0;
#X connect 10 0 1 1;
#X connect 10 0 8 1;
#X connect 11 0 3 0;
#X restore 107 367 pd number;
#X obj 80 239 alpha;
#X obj 80 173 gemhead 1;
#X obj 80 283 t a a;
#X obj 107 308 separator;
#N canvas 0 22 450 300 select-highlight 0;
#X obj -33 177 separator;
#X obj 22 77 inlet;
#X obj 30 106 spigot 0;
#X obj 172 41 r select-source;
#X obj 172 72 sel \$1;
#X msg 171 102 1;
#X obj 221 106 t b;
#X msg 221 134 0;
#X obj -33 212 color 1 1 0.9 0.2;
#X obj -33 241 sphere 0.4 20;
#X connect 0 0 8 0;
#X connect 1 0 2 0;
#X connect 2 0 0 0;
#X connect 3 0 4 0;
#X connect 4 0 5 0;
#X connect 4 1 6 0;
#X connect 5 0 2 1;
#X connect 6 0 7 0;
#X connect 7 0 2 1;
#X connect 8 0 9 0;
#X restore -27 327 pd select-highlight;
#X obj -23 66 r reset-src;
#X text -13 10 id \, name \, distance \, azimuth \, elevation \, size
\, peak \, rms \, osc-rcv-port;
#N canvas 463 106 450 300 no-signal 0;
#X obj 60 42 inlet;
#X obj 60 64 route \$1;
#X obj 64 179 spigot 0;
#X msg 60 108 0;
#X obj 109 124 delay 3000;
#X msg 109 146 1;
#X obj 60 86 t b b;
#X obj 105 93 t b;
#X msg 64 201 0;
#X obj 64 236 s \$0-reset-level;
#X connect 0 0 1 0;
#X connect 1 0 6 0;
#X connect 1 1 7 0;
#X connect 2 0 8 0;
#X connect 3 0 2 1;
#X connect 4 0 5 0;
#X connect 5 0 2 1;
#X connect 6 0 3 0;
#X connect 6 1 4 0;
#X connect 7 0 2 0;
#X connect 8 0 9 0;
#X restore 294 90 pd no-signal;
#X obj 212 59 t a a;
#N canvas 796 37 199 224 rot_view 0;
#X obj 50 26 inlet;
#X obj 50 169 outlet;
#X obj 79 93 r /global_rot;
#X obj 79 115 unpack 0 0 0;
#X obj 50 147 rotateXYZ 0 0 0;
#X connect 0 0 4 0;
#X connect 2 0 3 0;
#X connect 3 0 4 1;
#X connect 3 1 4 2;
#X connect 3 2 4 3;
#X connect 4 0 1 0;
#X restore 80 194 pd rot_view;
#X connect 0 0 7 0;
#X connect 0 0 10 0;
#X connect 1 0 14 0;
#X connect 2 0 17 0;
#X connect 3 0 15 0;
#X connect 4 0 23 0;
#X connect 5 0 6 0;
#X connect 6 0 9 0;
#X connect 6 0 16 0;
#X connect 7 0 8 0;
#X connect 8 0 9 0;
#X connect 9 0 16 0;
#X connect 10 2 2 1;
#X connect 10 3 2 2;
#X connect 10 4 1 1;
#X connect 10 5 1 2;
#X connect 10 6 1 3;
#X connect 10 7 13 0;
#X connect 12 0 13 1;
#X connect 13 0 11 0;
#X connect 15 0 2 0;
#X connect 16 0 24 0;
#X connect 17 0 19 0;
#X connect 17 1 18 0;
#X connect 18 0 1 0;
#X connect 20 0 6 0;
#X connect 23 0 0 0;
#X connect 23 1 22 0;
#X connect 24 0 3 0;
