#N canvas 1555 302 711 367 10;
#X obj 80 51 import mrpeach;
#X obj 37 278 udpsend;
#X msg 115 238 disconnect;
#X obj 37 206 packOSC;
#X obj 37 113 metro 50;
#X obj 37 88 tgl 15 0 empty empty empty 17 7 0 10 -262144 -1 -1 0 1
;
#X msg 37 182 send /head_pose 0 0 0 0 0 \$1 0;
#X obj 103 136 hsl 128 15 0 360 0 0 empty empty empty -2 -8 0 10 -262144
-1 -1 5400 1;
#X text 499 113 /rotation [pitch] [yaw] [roll];
#X msg 99 218 connect 127.0.0.1 7120;
#X obj 37 315 tgl 15 0 empty empty empty 17 7 0 10 -262144 -1 -1 1
1;
#X text 97 159 /head_pose [User_ID] [x] [y] [z] [pitch] [yaw] [roll]
;
#X obj 504 207 packOSC;
#X msg 504 183 send /rotation 0 \$1 0;
#X floatatom 504 142 5 0 0 0 - - -;
#X connect 1 0 10 0;
#X connect 2 0 1 0;
#X connect 3 0 1 0;
#X connect 4 0 6 0;
#X connect 5 0 4 0;
#X connect 6 0 3 0;
#X connect 7 0 6 0;
#X connect 9 0 1 0;
#X connect 12 0 1 0;
#X connect 13 0 12 0;
#X connect 14 0 13 0;
